<svg xmlns="http://www.w3.org/2000/svg" version="1.1" xmlns:xlink="http://www.w3.org/1999/xlink" xmlns:svgjs="http://svgjs.dev/svgjs" width="765" height="625" viewBox="0 0 321.456005859375 300" class="svg-animations "><svg viewBox="0 0 147.997314453125 138.99659729003906" width="100" height="100" style="fill: rgb(255, 255, 255);" x="26.788000488281256" y="100"><svg width="152" height="137" viewBox="0 0 152 137" xmlns="http://www.w3.org/2000/svg">
    <path d="M122.484 134H125.113C142.702 134 153.698 114.989 144.904 99.7873L119.347 55.5958L93.7911 11.4043C84.9965 -3.79689 63.0167 -3.79689 54.2221 11.4043L52.9009 13.6825C48.8172 20.7436 48.8172 29.43 52.9009 36.491L79.8719 83.1206L102.706 122.609C106.776 129.657 114.316 134 122.484 134Z"/>
    <path d="M6.51242 93.8984L3.09601 99.7871C-5.69858 114.988 5.29799 134 22.8872 134H29.7066C47.2958 134 58.2924 114.988 49.4978 99.7871L46.0814 93.8851C37.2868 78.6839 15.2937 78.6839 6.51242 93.8984Z"/>
    </svg></svg><svg style="fill: rgb(255, 255, 255);" x="136.78800048828126" y="133.875"><path d="M1.25 25.52L1.25 25.52L1.25 23.95Q1.25 23.47 1.73 23.47L1.73 23.47L3.42 23.47L3.42 6.86L1.76 6.86Q1.28 6.86 1.28 6.38L1.28 6.38L1.28 4.75Q1.28 4.24 1.76 4.24L1.76 4.24Q5.60 4.08 9.06 4.08Q12.51 4.08 14.58 5.41Q16.64 6.74 16.64 9.20L16.64 9.20Q16.64 10.99 15.54 12.32Q14.43 13.65 12.93 14.26L12.93 14.26Q15.39 14.64 16.69 16.08Q17.98 17.52 17.98 19.60L17.98 19.60Q17.98 22.32 15.97 24Q13.95 25.68 10.62 25.90L10.62 25.90Q9.25 26 6.21 26L6.21 26L1.73 26Q1.25 26 1.25 25.52ZM9.31 15.92L7.01 15.92L7.01 23.54L8.45 23.54Q11.26 23.54 12.82 22.64Q14.37 21.74 14.37 19.54L14.37 19.54Q14.37 15.92 9.31 15.92L9.31 15.92ZM8.51 6.67L7.01 6.67L7.01 13.26L8.22 13.26Q12.96 13.26 12.96 9.97L12.96 9.97Q12.96 8.11 11.81 7.39Q10.66 6.67 8.51 6.67L8.51 6.67ZM19.90 18.32L19.90 18.32Q19.90 15.92 20.64 14.16Q21.38 12.40 22.56 11.50L22.56 11.50Q24.83 9.81 27.49 9.81L27.49 9.81Q29.44 9.81 30.78 10.42Q32.13 11.02 32.88 11.82Q33.63 12.62 34.16 14.13Q34.69 15.63 34.69 17.65L34.69 17.65Q34.69 21.94 32.53 24.16Q30.37 26.38 27.01 26.38Q23.65 26.38 21.78 24.35Q19.90 22.32 19.90 18.32ZM27.26 23.76L27.26 23.76Q29.18 23.76 30.06 22.34Q30.94 20.91 30.94 18.10Q30.94 15.28 30.06 13.86Q29.18 12.43 27.20 12.43L27.20 12.43Q23.52 12.43 23.52 17.62L23.52 17.62Q23.52 23.76 27.26 23.76ZM36.93 18.32L36.93 18.32Q36.93 15.92 37.66 14.16Q38.40 12.40 39.58 11.50L39.58 11.50Q41.86 9.81 44.51 9.81L44.51 9.81Q46.46 9.81 47.81 10.42Q49.15 11.02 49.90 11.82Q50.66 12.62 51.18 14.13Q51.71 15.63 51.71 17.65L51.71 17.65Q51.71 21.94 49.55 24.16Q47.39 26.38 44.03 26.38Q40.67 26.38 38.80 24.35Q36.93 22.32 36.93 18.32ZM44.29 23.76L44.29 23.76Q46.21 23.76 47.09 22.34Q47.97 20.91 47.97 18.10Q47.97 15.28 47.09 13.86Q46.21 12.43 44.22 12.43L44.22 12.43Q40.54 12.43 40.54 17.62L40.54 17.62Q40.54 23.76 44.29 23.76ZM53.63 12.30L53.63 12.30L53.63 10.64Q53.63 10.16 54.11 10.16L54.11 10.16L58.50 10.16Q58.91 10.16 58.98 10.64L58.98 10.64L59.23 12.50Q60.90 9.81 64.22 9.81Q67.55 9.81 68.61 12.62L68.61 12.62Q70.34 9.81 73.63 9.81L73.63 9.81Q78.59 9.81 78.59 15.25L78.59 15.25L78.59 23.47L80.42 23.47Q80.90 23.47 80.90 23.95L80.90 23.95L80.90 25.52Q80.90 26 80.42 26L80.42 26L73.38 26Q72.90 26 72.90 25.52L72.90 25.52L72.90 23.95Q72.90 23.47 73.38 23.47L73.38 23.47L75.01 23.47L75.01 16.85Q75.01 14.83 74.50 13.90Q73.98 12.98 72.43 12.98Q70.88 12.98 69.95 13.81Q69.02 14.64 69.02 15.76L69.02 15.76L69.02 23.47L70.56 23.47Q71.04 23.47 71.04 23.95L71.04 23.95L71.04 25.52Q71.04 26 70.56 26L70.56 26L64 26Q63.52 26 63.52 25.52L63.52 25.52L63.52 23.95Q63.52 23.47 64 23.47L64 23.47L65.44 23.47L65.44 16.85Q65.44 14.83 64.93 13.90Q64.42 12.98 62.83 12.98Q61.25 12.98 60.34 13.92Q59.42 14.86 59.42 16.11L59.42 16.11L59.42 23.47L61.38 23.47Q61.86 23.47 61.86 23.95L61.86 23.95L61.86 25.52Q61.86 26 61.38 26L61.38 26L54.14 26Q53.66 26 53.66 25.52L53.66 25.52L53.66 23.95Q53.66 23.47 54.14 23.47L54.14 23.47L55.84 23.47L55.84 12.78L54.11 12.78Q53.63 12.78 53.63 12.30ZM91.90 16.50L91.90 16.50L91.90 15.38Q91.90 13.10 90.62 12.53L90.62 12.53Q90.02 12.27 88.86 12.27L88.86 12.27Q86.69 12.27 86.24 14.32L86.24 14.32Q86.14 14.80 85.76 14.80L85.76 14.80L83.71 14.80Q83.20 14.80 83.26 14.32L83.26 14.32Q83.39 11.98 85.15 10.90Q86.91 9.81 89.63 9.81L89.63 9.81Q95.36 9.81 95.36 15.06L95.36 15.06L95.36 23.47L96.74 23.47Q97.22 23.47 97.22 23.95L97.22 23.95L97.22 25.52Q97.22 26 96.74 26L96.74 26L92.96 26Q92.54 26 92.48 25.52L92.48 25.52L92.26 24.05Q90.53 26.38 87.26 26.38L87.26 26.38Q85.22 26.38 83.87 25.31Q82.53 24.24 82.53 21.87L82.53 21.87Q82.53 18.77 85.12 17.62L85.12 17.62Q87.26 16.62 90.24 16.53L90.24 16.53Q90.85 16.53 91.90 16.50ZM91.97 21.17L91.97 21.17L91.97 18.70Q88.90 18.70 88.19 18.99Q87.49 19.28 86.94 19.57L86.94 19.57Q85.92 20.11 85.92 21.55L85.92 21.55Q85.92 23.76 88.45 23.76L88.45 23.76Q90.11 23.76 91.04 22.98Q91.97 22.19 91.97 21.17ZM104.58 12.91Q105.12 11.63 106.34 10.72Q107.55 9.81 108.99 9.81Q110.43 9.81 111.20 10.06L111.20 10.06Q111.58 10.19 111.58 10.64L111.58 10.64L111.58 14.96Q111.58 15.44 111.10 15.44L111.10 15.44L109.02 15.44Q108.54 15.44 108.58 14.96L108.58 14.96L108.70 13.10Q108.54 13.07 108.16 13.07L108.16 13.07Q106.69 13.07 105.73 14.27Q104.77 15.47 104.77 17.49L104.77 17.49L104.77 23.47L108.29 23.47Q108.77 23.47 108.77 23.95L108.77 23.95L108.77 25.52Q108.77 26 108.29 26L108.29 26L99.49 26Q99.01 26 99.01 25.52L99.01 25.52L99.01 23.95Q99.01 23.47 99.49 23.47L99.49 23.47L101.18 23.47L101.18 12.78L99.46 12.78Q98.98 12.78 98.98 12.30L98.98 12.30L98.98 10.64Q98.98 10.16 99.46 10.16L99.46 10.16L103.68 10.16Q104.13 10.16 104.22 10.64L104.22 10.64L104.58 12.91ZM119.20 2.61L119.20 2.61L119.20 15.38L120.83 15.38L125.79 10.51Q126.14 10.16 126.62 10.16L126.62 10.16L129.12 10.16Q129.60 10.16 129.60 10.64L129.60 10.64L129.60 12.30Q129.60 12.78 129.12 12.78L129.12 12.78L127.17 12.78L123.65 16.21L128.03 23.47L129.92 23.47Q130.40 23.47 130.40 23.95L130.40 23.95L130.40 25.52Q130.40 26 129.92 26L129.92 26L125.79 26Q125.34 26 125.06 25.58L125.06 25.58L120.26 17.84L119.20 17.84L119.20 23.47L120.90 23.47Q121.38 23.47 121.38 23.95L121.38 23.95L121.38 25.52Q121.38 26 120.90 26L120.90 26L113.92 26Q113.44 26 113.44 25.52L113.44 25.52L113.44 23.95Q113.44 23.47 113.92 23.47L113.92 23.47L115.62 23.47L115.62 4.72L113.89 4.72Q113.41 4.72 113.41 4.24L113.41 4.24L113.41 2.61Q113.41 2.13 113.89 2.13L113.89 2.13L118.72 2.13Q119.20 2.13 119.20 2.61ZM137.12 12.91Q137.66 11.63 138.88 10.72Q140.10 9.81 141.54 9.81Q142.98 9.81 143.74 10.06L143.74 10.06Q144.13 10.19 144.13 10.64L144.13 10.64L144.13 14.96Q144.13 15.44 143.65 15.44L143.65 15.44L141.57 15.44Q141.09 15.44 141.12 14.96L141.12 14.96L141.25 13.10Q141.09 13.07 140.70 13.07L140.70 13.07Q139.23 13.07 138.27 14.27Q137.31 15.47 137.31 17.49L137.31 17.49L137.31 23.47L140.83 23.47Q141.31 23.47 141.31 23.95L141.31 23.95L141.31 25.52Q141.31 26 140.83 26L140.83 26L132.03 26Q131.55 26 131.55 25.52L131.55 25.52L131.55 23.95Q131.55 23.47 132.03 23.47L132.03 23.47L133.73 23.47L133.73 12.78L132 12.78Q131.52 12.78 131.52 12.30L131.52 12.30L131.52 10.64Q131.52 10.16 132 10.16L132 10.16L136.22 10.16Q136.67 10.16 136.77 10.64L136.77 10.64L137.12 12.91Z"/></svg><text fill="#ffffff" font-family="Verdana" font-size="16px" x="210.7280029296875" y="166.125"><tspan dy="0" x="210.7280029296875"></tspan></text></svg>
