<svg xmlns="http://www.w3.org/2000/svg" version="1.1" xmlns:xlink="http://www.w3.org/1999/xlink" xmlns:svgjs="http://svgjs.dev/svgjs" width="765" height="625" viewBox="0 0 343.18800659179686 300" class="svg-animations "><svg viewBox="0 0 147.997314453125 138.99659729003906" width="100" height="100" style="fill: rgb(255, 255, 255);" x="28.5990005493164" y="100"><svg width="152" height="137" viewBox="0 0 152 137" xmlns="http://www.w3.org/2000/svg">
    <path d="M122.484 134H125.113C142.702 134 153.698 114.989 144.904 99.7873L119.347 55.5958L93.7911 11.4043C84.9965 -3.79689 63.0167 -3.79689 54.2221 11.4043L52.9009 13.6825C48.8172 20.7436 48.8172 29.43 52.9009 36.491L79.8719 83.1206L102.706 122.609C106.776 129.657 114.316 134 122.484 134Z"/>
    <path d="M6.51242 93.8984L3.09601 99.7871C-5.69858 114.988 5.29799 134 22.8872 134H29.7066C47.2958 134 58.2924 114.988 49.4978 99.7871L46.0814 93.8851C37.2868 78.6839 15.2937 78.6839 6.51242 93.8984Z"/>
    </svg></svg><svg style="fill: rgb(255, 255, 255);" x="138.5990005493164" y="133.875"><path d="M1.25 25.52L1.25 25.52L1.25 23.95Q1.25 23.47 1.73 23.47L1.73 23.47L3.42 23.47L3.42 6.86L1.76 6.86Q1.28 6.86 1.28 6.38L1.28 6.38L1.28 4.75Q1.28 4.24 1.76 4.24L1.76 4.24Q5.60 4.08 9.06 4.08Q12.51 4.08 14.58 5.41Q16.64 6.74 16.64 9.20L16.64 9.20Q16.64 10.99 15.54 12.32Q14.43 13.65 12.93 14.26L12.93 14.26Q15.39 14.64 16.69 16.08Q17.98 17.52 17.98 19.60L17.98 19.60Q17.98 22.32 15.97 24Q13.95 25.68 10.62 25.90L10.62 25.90Q9.25 26 6.21 26L6.21 26L1.73 26Q1.25 26 1.25 25.52ZM9.31 15.92L7.01 15.92L7.01 23.54L8.45 23.54Q11.26 23.54 12.82 22.64Q14.37 21.74 14.37 19.54L14.37 19.54Q14.37 15.92 9.31 15.92L9.31 15.92ZM8.51 6.67L7.01 6.67L7.01 13.26L8.22 13.26Q12.96 13.26 12.96 9.97L12.96 9.97Q12.96 8.11 11.81 7.39Q10.66 6.67 8.51 6.67L8.51 6.67ZM19.90 18.32L19.90 18.32Q19.90 15.92 20.64 14.16Q21.38 12.40 22.56 11.50L22.56 11.50Q24.83 9.81 27.49 9.81L27.49 9.81Q29.44 9.81 30.78 10.42Q32.13 11.02 32.88 11.82Q33.63 12.62 34.16 14.13Q34.69 15.63 34.69 17.65L34.69 17.65Q34.69 21.94 32.53 24.16Q30.37 26.38 27.01 26.38Q23.65 26.38 21.78 24.35Q19.90 22.32 19.90 18.32ZM27.26 23.76L27.26 23.76Q29.18 23.76 30.06 22.34Q30.94 20.91 30.94 18.10Q30.94 15.28 30.06 13.86Q29.18 12.43 27.20 12.43L27.20 12.43Q23.52 12.43 23.52 17.62L23.52 17.62Q23.52 23.76 27.26 23.76ZM36.93 18.32L36.93 18.32Q36.93 15.92 37.66 14.16Q38.40 12.40 39.58 11.50L39.58 11.50Q41.86 9.81 44.51 9.81L44.51 9.81Q46.46 9.81 47.81 10.42Q49.15 11.02 49.90 11.82Q50.66 12.62 51.18 14.13Q51.71 15.63 51.71 17.65L51.71 17.65Q51.71 21.94 49.55 24.16Q47.39 26.38 44.03 26.38Q40.67 26.38 38.80 24.35Q36.93 22.32 36.93 18.32ZM44.29 23.76L44.29 23.76Q46.21 23.76 47.09 22.34Q47.97 20.91 47.97 18.10Q47.97 15.28 47.09 13.86Q46.21 12.43 44.22 12.43L44.22 12.43Q40.54 12.43 40.54 17.62L40.54 17.62Q40.54 23.76 44.29 23.76ZM59.42 2.61L59.42 2.61L59.42 15.38L61.06 15.38L66.02 10.51Q66.37 10.16 66.85 10.16L66.85 10.16L69.34 10.16Q69.82 10.16 69.82 10.64L69.82 10.64L69.82 12.30Q69.82 12.78 69.34 12.78L69.34 12.78L67.39 12.78L63.87 16.21L68.26 23.47L70.14 23.47Q70.62 23.47 70.62 23.95L70.62 23.95L70.62 25.52Q70.62 26 70.14 26L70.14 26L66.02 26Q65.57 26 65.28 25.58L65.28 25.58L60.48 17.84L59.42 17.84L59.42 23.47L61.12 23.47Q61.60 23.47 61.60 23.95L61.60 23.95L61.60 25.52Q61.60 26 61.12 26L61.12 26L54.14 26Q53.66 26 53.66 25.52L53.66 25.52L53.66 23.95Q53.66 23.47 54.14 23.47L54.14 23.47L55.84 23.47L55.84 4.72L54.11 4.72Q53.63 4.72 53.63 4.24L53.63 4.24L53.63 2.61Q53.63 2.13 54.11 2.13L54.11 2.13L58.94 2.13Q59.42 2.13 59.42 2.61ZM71.74 12.30L71.74 12.30L71.74 10.64Q71.74 10.16 72.22 10.16L72.22 10.16L76.61 10.16Q77.02 10.16 77.09 10.64L77.09 10.64L77.34 12.50Q79.01 9.81 82.34 9.81Q85.66 9.81 86.72 12.62L86.72 12.62Q88.45 9.81 91.74 9.81L91.74 9.81Q96.70 9.81 96.70 15.25L96.70 15.25L96.70 23.47L98.53 23.47Q99.01 23.47 99.01 23.95L99.01 23.95L99.01 25.52Q99.01 26 98.53 26L98.53 26L91.49 26Q91.01 26 91.01 25.52L91.01 25.52L91.01 23.95Q91.01 23.47 91.49 23.47L91.49 23.47L93.12 23.47L93.12 16.85Q93.12 14.83 92.61 13.90Q92.10 12.98 90.54 12.98Q88.99 12.98 88.06 13.81Q87.14 14.64 87.14 15.76L87.14 15.76L87.14 23.47L88.67 23.47Q89.15 23.47 89.15 23.95L89.15 23.95L89.15 25.52Q89.15 26 88.67 26L88.67 26L82.11 26Q81.63 26 81.63 25.52L81.63 25.52L81.63 23.95Q81.63 23.47 82.11 23.47L82.11 23.47L83.55 23.47L83.55 16.85Q83.55 14.83 83.04 13.90Q82.53 12.98 80.94 12.98Q79.36 12.98 78.45 13.92Q77.54 14.86 77.54 16.11L77.54 16.11L77.54 23.47L79.49 23.47Q79.97 23.47 79.97 23.95L79.97 23.95L79.97 25.52Q79.97 26 79.49 26L79.49 26L72.26 26Q71.78 26 71.78 25.52L71.78 25.52L71.78 23.95Q71.78 23.47 72.26 23.47L72.26 23.47L73.95 23.47L73.95 12.78L72.22 12.78Q71.74 12.78 71.74 12.30ZM110.02 16.50L110.02 16.50L110.02 15.38Q110.02 13.10 108.74 12.53L108.74 12.53Q108.13 12.27 106.98 12.27L106.98 12.27Q104.80 12.27 104.35 14.32L104.35 14.32Q104.26 14.80 103.87 14.80L103.87 14.80L101.82 14.80Q101.31 14.80 101.38 14.32L101.38 14.32Q101.50 11.98 103.26 10.90Q105.02 9.81 107.74 9.81L107.74 9.81Q113.47 9.81 113.47 15.06L113.47 15.06L113.47 23.47L114.85 23.47Q115.33 23.47 115.33 23.95L115.33 23.95L115.33 25.52Q115.33 26 114.85 26L114.85 26L111.07 26Q110.66 26 110.59 25.52L110.59 25.52L110.37 24.05Q108.64 26.38 105.38 26.38L105.38 26.38Q103.33 26.38 101.98 25.31Q100.64 24.24 100.64 21.87L100.64 21.87Q100.64 18.77 103.23 17.62L103.23 17.62Q105.38 16.62 108.35 16.53L108.35 16.53Q108.96 16.53 110.02 16.50ZM110.08 21.17L110.08 21.17L110.08 18.70Q107.01 18.70 106.30 18.99Q105.60 19.28 105.06 19.57L105.06 19.57Q104.03 20.11 104.03 21.55L104.03 21.55Q104.03 23.76 106.56 23.76L106.56 23.76Q108.22 23.76 109.15 22.98Q110.08 22.19 110.08 21.17ZM122.69 12.91Q123.23 11.63 124.45 10.72Q125.66 9.81 127.10 9.81Q128.54 9.81 129.31 10.06L129.31 10.06Q129.70 10.19 129.70 10.64L129.70 10.64L129.70 14.96Q129.70 15.44 129.22 15.44L129.22 15.44L127.14 15.44Q126.66 15.44 126.69 14.96L126.69 14.96L126.82 13.10Q126.66 13.07 126.27 13.07L126.27 13.07Q124.80 13.07 123.84 14.27Q122.88 15.47 122.88 17.49L122.88 17.49L122.88 23.47L126.40 23.47Q126.88 23.47 126.88 23.95L126.88 23.95L126.88 25.52Q126.88 26 126.40 26L126.40 26L117.60 26Q117.12 26 117.12 25.52L117.12 25.52L117.12 23.95Q117.12 23.47 117.60 23.47L117.60 23.47L119.30 23.47L119.30 12.78L117.57 12.78Q117.09 12.78 117.09 12.30L117.09 12.30L117.09 10.64Q117.09 10.16 117.57 10.16L117.57 10.16L121.79 10.16Q122.24 10.16 122.34 10.64L122.34 10.64L122.69 12.91ZM137.31 2.61L137.31 2.61L137.31 15.38L138.94 15.38L143.90 10.51Q144.26 10.16 144.74 10.16L144.74 10.16L147.23 10.16Q147.71 10.16 147.71 10.64L147.71 10.64L147.71 12.30Q147.71 12.78 147.23 12.78L147.23 12.78L145.28 12.78L141.76 16.21L146.14 23.47L148.03 23.47Q148.51 23.47 148.51 23.95L148.51 23.95L148.51 25.52Q148.51 26 148.03 26L148.03 26L143.90 26Q143.46 26 143.17 25.58L143.17 25.58L138.37 17.84L137.31 17.84L137.31 23.47L139.01 23.47Q139.49 23.47 139.49 23.95L139.49 23.95L139.49 25.52Q139.49 26 139.01 26L139.01 26L132.03 26Q131.55 26 131.55 25.52L131.55 25.52L131.55 23.95Q131.55 23.47 132.03 23.47L132.03 23.47L133.73 23.47L133.73 4.72L132 4.72Q131.52 4.72 131.52 4.24L131.52 4.24L131.52 2.61Q131.52 2.13 132 2.13L132 2.13L136.83 2.13Q137.31 2.13 137.31 2.61ZM155.23 12.91Q155.78 11.63 156.99 10.72Q158.21 9.81 159.65 9.81Q161.09 9.81 161.86 10.06L161.86 10.06Q162.24 10.19 162.24 10.64L162.24 10.64L162.24 14.96Q162.24 15.44 161.76 15.44L161.76 15.44L159.68 15.44Q159.20 15.44 159.23 14.96L159.23 14.96L159.36 13.10Q159.20 13.07 158.82 13.07L158.82 13.07Q157.34 13.07 156.38 14.27Q155.42 15.47 155.42 17.49L155.42 17.49L155.42 23.47L158.94 23.47Q159.42 23.47 159.42 23.95L159.42 23.95L159.42 25.52Q159.42 26 158.94 26L158.94 26L150.14 26Q149.66 26 149.66 25.52L149.66 25.52L149.66 23.95Q149.66 23.47 150.14 23.47L150.14 23.47L151.84 23.47L151.84 12.78L150.11 12.78Q149.63 12.78 149.63 12.30L149.63 12.30L149.63 10.64Q149.63 10.16 150.11 10.16L150.11 10.16L154.34 10.16Q154.78 10.16 154.88 10.64L154.88 10.64L155.23 12.91Z"/></svg><text fill="#ffffff" font-family="Verdana" font-size="16px" x="221.59400329589843" y="166.125"><tspan dy="0" x="221.59400329589843"></tspan></text></svg>
